<?xml version="1.0" encoding="UTF-8" standalone="no" ?>
<!DOCTYPE svg PUBLIC "-//W3C//DTD SVG 1.1//EN" "http://www.w3.org/Graphics/SVG/1.1/DTD/svg11.dtd">
<svg xmlns="http://www.w3.org/2000/svg" xmlns:xlink="http://www.w3.org/1999/xlink" version="1.1" width="1080" height="1080" viewBox="0 0 1080 1080" xml:space="preserve">
<desc>Created with Fabric.js 5.2.4</desc>
<defs>
</defs>
<g transform="matrix(1 0 0 1 540 540)" id="d34bec34-1779-4019-8234-0277a88b7425"  >
<rect style="stroke: none; stroke-width: 1; stroke-dasharray: none; stroke-linecap: butt; stroke-dashoffset: 0; stroke-linejoin: miter; stroke-miterlimit: 4; fill: rgb(255,255,255); fill-rule: nonzero; opacity: 1; visibility: hidden;" vector-effect="non-scaling-stroke"  x="-540" y="-540" rx="0" ry="0" width="1080" height="1080" />
</g>
<g transform="matrix(1 0 0 1 540 540)" id="c67c8b1e-af83-4194-823f-cbea6ba51c41"  >
</g>
<g transform="matrix(28.42 0 0 28.42 540 540)"  >
<path style="stroke: none; stroke-width: 1; stroke-dasharray: none; stroke-linecap: butt; stroke-dashoffset: 0; stroke-linejoin: miter; stroke-miterlimit: 4; fill: rgb(255,255,255); fill-opacity: 0.6; fill-rule: nonzero; opacity: 1;"  transform=" translate(-19, -25)" d="M 19 50 C 29.3562 50 37.75 43.75 37.75 32.8125 C 37.75 28.125 36.1875 20.3125 29.9375 14.0625 C 30.7188 18.75 26.0312 20.3125 26.0312 20.3125 C 28.375 12.5 22.125 1.5625 12.75 0 C 13.8656 6.25 14.3125 12.5 6.5 18.75 C 2.59375 21.875 0.25 27.2781 0.25 32.8125 C 0.25 43.75 8.64375 50 19 50 Z M 19 46.875 C 13.8219 46.875 9.625 43.75 9.625 38.2812 C 9.625 35.9375 10.4062 32.0312 13.5312 28.9062 C 13.1406 31.25 15.875 32.8125 15.875 32.8125 C 14.7031 28.9062 17.4375 22.6562 22.125 21.875 C 21.5656 25 21.3438 28.125 25.25 31.25 C 27.2031 32.8125 28.375 35.5125 28.375 38.2812 C 28.375 43.75 24.1781 46.875 19 46.875 Z" stroke-linecap="round" />
</g>
</svg>